<svg width="141" height="56" viewBox="0 0 141 56" fill="none" xmlns="http://www.w3.org/2000/svg">
<g clip-path="url(#clip0_1_1171)">
<path d="M58.5 52.2H62.1V51.6H58.5V49.3H62.5V48.7H57.8V55.2H62.7V54.6H58.5V52.2ZM124.7 52.2C125 51.9 125.1 51.4 125.1 50.9C125.1 50.2 124.9 49.7 124.4 49.3C123.9 48.9 123.2 48.7 122.3 48.7H119.7V55.2H120.4V53.1H122.3C122.5 53.1 122.7 53.1 122.9 53.1L124.5 55.2H125.3L123.6 53C124.1 52.8 124.5 52.6 124.7 52.2ZM122.3 52.5H120.5V49.2H122.3C123 49.2 123.5 49.3 123.9 49.6C124.3 49.9 124.4 50.3 124.4 50.8C124.4 51.3 124.2 51.7 123.9 52C123.5 52.4 123 52.5 122.3 52.5ZM48.6 49.3H51.1V53.2C51.1 54.2 50.7 54.6 49.8 54.6C49.2 54.6 48.7 54.3 48.3 53.8L47.9 54.3C48.1 54.6 48.4 54.8 48.7 55C49 55.2 49.4 55.2 49.8 55.2C50.5 55.2 51 55 51.3 54.7C51.6 54.4 51.8 53.8 51.8 53.2V48.7H48.6V49.3ZM42.1 49.1C41.6 48.8 40.9 48.7 40.3 48.7C39.6 48.7 39 48.8 38.4 49.1C37.8 49.4 37.4 49.8 37.1 50.3C36.8 50.8 36.6 51.4 36.6 52C36.6 52.6 36.8 53.2 37.1 53.7C37.4 54.2 37.8 54.6 38.4 54.9C39 55.2 39.6 55.3 40.3 55.3C41 55.3 41.6 55.2 42.1 54.9C42.6 54.6 43.1 54.2 43.4 53.7C43.7 53.2 43.9 52.6 43.9 52C43.9 51.4 43.7 50.8 43.4 50.3C43.1 49.7 42.6 49.4 42.1 49.1ZM42.8 53.3C42.6 53.7 42.2 54 41.8 54.3C41.4 54.5 40.9 54.6 40.3 54.6C39.8 54.6 39.3 54.5 38.8 54.3C38.4 54.1 38 53.7 37.8 53.3C37.5 52.9 37.4 52.4 37.4 51.9C37.4 51.4 37.5 50.9 37.8 50.5C38.1 50.1 38.4 49.8 38.8 49.5C39.2 49.3 39.7 49.2 40.3 49.2C40.8 49.2 41.3 49.3 41.8 49.5C42.2 49.7 42.6 50.1 42.8 50.5C43.1 50.9 43.2 51.4 43.2 51.9C43.1 52.4 43 52.9 42.8 53.3ZM31.3 52.2C31.6 51.9 31.7 51.4 31.7 50.9C31.7 50.2 31.5 49.7 31 49.3C30.5 48.9 29.8 48.7 28.9 48.7H26.3V55.2H27V53.1H28.9C29.1 53.1 29.3 53.1 29.5 53.1L31.1 55.2H31.9L30.2 53C30.7 52.8 31.1 52.6 31.3 52.2ZM28.9 52.5H27.1V49.2H28.9C29.6 49.2 30.1 49.3 30.5 49.6C30.9 49.9 31 50.3 31 50.8C31 51.3 30.8 51.7 30.5 52C30.1 52.4 29.6 52.5 28.9 52.5ZM111.7 53H114.3V52.4H111.7V53ZM24.8 16.5H40.9C45.4 16.5 49.1 12.8 49.1 8.3C49.1 3.8 45.4 0.0999994 40.9 0.0999994H24.8C20.3 0.0999994 16.6 3.8 16.6 8.3C16.6 12.8 20.3 16.5 24.8 16.5ZM20.3 49.3C19.8 48.9 19.1 48.7 18.2 48.7H15.6V55.2H16.3V53.1H18.2C19.1 53.1 19.8 52.9 20.3 52.5C20.8 52.1 21 51.6 21 50.9C21 50.2 20.8 49.7 20.3 49.3ZM19.7 52.1C19.3 52.4 18.8 52.5 18.1 52.5H16.3V49.3H18.1C18.8 49.3 19.3 49.4 19.7 49.7C20.1 50 20.2 50.4 20.2 50.9C20.3 51.4 20.1 51.8 19.7 52.1ZM132.7 0.2H116.6C112.1 0.2 108.4 3.9 108.4 8.4C108.4 12.9 112.1 16.6 116.6 16.6H132.7C137.2 16.6 140.9 12.9 140.9 8.4C140.8 3.8 137.2 0.2 132.7 0.2ZM96.7 48.7L93.5 55.2H94.3L95.1 53.5H98.9L99.7 55.2H100.5L97.3 48.7H96.7ZM95.4 52.9L97.1 49.4L98.7 52.9H95.4ZM96.9 0C92.4 0 88.7 3.7 88.7 8.2V15.3V21.3V28.4C88.7 32.9 92.4 36.6 96.9 36.6C101.4 36.6 105.1 32.9 105.1 28.4V21.3V15.3V8.2C105.1 3.7 101.4 0 96.9 0ZM57.5 20.4H8.2C3.7 20.4 0 24.1 0 28.6C0 33.1 3.7 36.8 8.2 36.8H57.5C62 36.8 65.7 33.1 65.7 28.6C65.7 24 62 20.4 57.5 20.4ZM105.5 55.2H106.2V48.7H105.5V55.2ZM77.1 0C72.6 0 68.9 3.7 68.9 8.2C68.9 12.7 72.6 16.4 77.1 16.4C81.6 16.4 85.3 12.7 85.3 8.2C85.3 3.7 81.6 0 77.1 0ZM69.7 49.6C70.1 49.4 70.6 49.2 71.2 49.2C72 49.2 72.7 49.5 73.2 50L73.7 49.6C73.4 49.3 73 49.1 72.6 48.9C72.2 48.7 71.7 48.7 71.2 48.7C70.5 48.7 69.9 48.8 69.3 49.1C68.7 49.4 68.3 49.8 68 50.3C67.7 50.8 67.5 51.4 67.5 52C67.5 52.6 67.7 53.2 68 53.7C68.3 54.2 68.7 54.6 69.3 54.9C69.8 55.2 70.5 55.3 71.1 55.3C71.6 55.3 72.1 55.2 72.5 55.1C72.9 54.9 73.3 54.7 73.6 54.4L73.2 53.9C72.7 54.4 72 54.7 71.2 54.7C70.7 54.7 70.2 54.6 69.7 54.3C69.3 54.1 68.9 53.7 68.6 53.3C68.3 52.9 68.2 52.4 68.2 51.9C68.2 51.4 68.3 50.9 68.6 50.5C68.9 50.2 69.2 49.8 69.7 49.6ZM77.8 49.3H80.2V55.2H80.9V49.3H83.3V48.7H77.7V49.3H77.8ZM77.1 20.3C72.6 20.3 68.9 24 68.9 28.5C68.9 33 72.6 36.7 77.1 36.7C81.6 36.7 85.3 33 85.3 28.5C85.3 24 81.6 20.3 77.1 20.3Z" fill="#00FF00"/>
</g>
<defs>
<clipPath id="clip0_1_1171">
<rect width="140.9" height="55.3" fill="white"/>
</clipPath>
</defs>
</svg>
